<svg xmlns="http://www.w3.org/2000/svg" xmlns:xlink="http://www.w3.org/1999/xlink" version="1.1" x="0px" y="0px" viewBox="0 0 100 100" enable-background="new 0 0 100 100" xml:space="preserve"><g><path d="M35.3,28.9c-2.6,0-4.7,2.1-4.7,4.7c0,2.6,2.1,4.7,4.7,4.7c2.6,0,4.7-2.1,4.7-4.7C40,31,37.9,28.9,35.3,28.9z M35.3,34.9   c-0.8,0-1.4-0.6-1.4-1.4c0-0.8,0.6-1.4,1.4-1.4c0.8,0,1.4,0.6,1.4,1.4C36.7,34.3,36.1,34.9,35.3,34.9z M69.7,35.4H48   c-0.9,0-1.6,0.7-1.6,1.7v32.5c0,0.9,0.7,1.7,1.6,1.7s1.7-0.7,1.7-1.7V54.8h12.1c0.9,0,1.6-0.7,1.6-1.6c0-0.9-0.7-1.7-1.6-1.7H49.7   V38.7h20c0.9,0,1.7-0.7,1.7-1.6S70.6,35.4,69.7,35.4z"></path></g></svg>